<?xml version="1.0" encoding="UTF-8"?>
<!--
  Engrossed-style "N" — modeled after the same calligraphic hand
  Jacob Shallus used for the "We the People" engrossing on the
  parchment Constitution (1787). Used as the dropcap for the
  Spanish preamble ("Nosotros, el Pueblo…").
  Source: JTC_Logo-N.svg (companion mark to JTC_Logo-OptionA-We).
  Letterform inherits `currentColor` so the dropcap follows theme accent.
-->
<svg xmlns="http://www.w3.org/2000/svg" viewBox="0 0 160 160" role="img" aria-label="N">
  <path fill="currentColor" d="M138.44,116.7l-6.13,8.57-2.52,3.05-2.56,3.05s-.35.41-.62.73c-.22.26-.6.32-.9.13l-.52-.33-4.77-2.63-5.83-3.16-5.78-3.18c-.26-.14-.44-.4-.49-.69l-1.95-12.22-2.32-17.81-2.27-15.22-1.48-9.23s-1.82-10.79-1.82-10.79c-.45-2.57-1.11-5.11-1.57-7.68-.39-2.18-.51-3.67-1.73-5.57-1.07-1.67-2.9-3.96-4.44-5.12-3.9-2.93-7.76-6.25-12.99-5.73-3.76.38-7.05,2.7-9.74,5.36-2.01,1.99-3.79,4.2-5.77,6.23-1.08,1.11-2.2,2.19-3.32,3.26-.94.9-1.82,1.89-2.74,2.8-.7.68-1.45-3.56-1.51-3.97-.19-1.41-.36-2.87-.53-4.31-.17-1.38-.2-2.92-.62-4.25-.12-.39-.27-.76-.46-1.12-.09-.18-.59-.72-.59-.89-.61-.68-.65-.75-1.43-1.33l-11.37-8.35c-.24-.18-.34-.32-.38-.46-.14-.58.09-1.19.49-1.63L60.74,1.3c.4-.42,1.84-2.36-.23-.53l-2.71,2.63c-.26.17-2.19,2.26-2.42,2.51L23.24,40.12c-.17.18-.95.94-1.67,1.91-.2.27-.01.66.32.67l.39.02c.51-.41,4.31-4.72,4.77-5.21l4.73-4.92c.86-.89,2.22-1.05,3.26-.37l.3.2c1.74,1.31,3.48,2.61,5.21,3.93,1.39,1.06,2.89,2.01,4.22,3.14.65.55,1.28,1.22,1.55,2.05.4,1.22.48,2.57.67,3.84.37,2.44.75,4.88,1.11,7.32.36,2.39.71,4.77,1.07,7.16.35,2.36.7,4.73,1.06,7.09.16,1.09.32,2.18.49,3.27l1.21,10.35,1.05,7.74,1.42,9.73c1.31,8.94,2.67,17.69,3.61,26.67.04.38-.13.74-.43.97-.19.14-.38.28-.57.42-.52.39-1.07.72-1.57,1.13-.96.77-1.68,1.84-1.97,3.04-.14.59-.27,1.18.1,1.64h.01c.05.02.1-.1.16-.3.27-.95.48-1.85,1.26-2.52.09-.08.18-.14.28-.2.26-.16.55-.12.83-.05.44.1.89.18,1.34.27.76.16,1.51.35,2.26.58,1.48.44,2.92,1.01,4.31,1.7.37.18.72.38,1.09.57,0,0,4.79,2.49,4.79,2.49l5.94,3.3.09.05c.07.04.13.07.19.1.56.32.69,1.06.28,1.55l-16.4,19.42c-.08.09.04.22.14.15l2.14-2.12,16.22-18.56c.08-.09.17-.19.25-.28l4.71-5.43,2.08-2.51,2.39-2.97,1.93-2.43,8.8-11.82c.05-.07.16-.04.18.05l.12.92.92,6.62c.14,1.01-.08,2.04-.62,2.91l-2.17,3.47-2.1,4.6c-.06.13.11.24.21.13l.53-.6,1.32-2.04c.33-.51.96-.73,1.53-.53.46.16.9.31.9.31l.73.25,2.29,1.08c2.31.95,4.34,2.38,6.56,3.53l7.46,3.86,2.25,1.23.2.11c.06.03.08.06.13.09.55.34.7,1.06.29,1.56l-16.4,19.42c-.08.09.04.22.14.15l2.14-2.12,16.22-18.56c.08-.09.17-.19.25-.28l4.71-5.43,2.08-2.51,2.39-2.97,1.93-2.43,4.63-6.44c.28-.39.5-.82.65-1.28.13-.41.38-.98.41-1.23,0-.04-.05-.06-.08-.03ZM89.28,124.34l-2.47,2.98-3.42,4.07c-.15.18-.53.47-.74.49s-.53-.38-.75-.49l-.18-.09-11.38-5.76-3.88-2.32-.72-3.24-1.55-10.52-.95-6.58-1.26-8.53-3.76-25.29-2.23-14.27c-.12-.77.19-1.55.8-2.03l10.07-7.84c5.86-4.56,14.76-3.96,19.8,1.06,3.34,3.33,3.7,7.84,4.5,12.26,2.28,12.55,3.73,25.23,5.43,37.87.4,2.39.7,4.8.99,7.21.29,2.4.67,4.19.86,6.59l.28,2.09-9.43,12.34Z"/>
</svg>
