<?xml version="1.0" encoding="UTF-8"?>
<!--
  Open Graph share card — 1200×630, parchment palette.

  Source file. Export to /og-image.png at repo root before deploying.
  The meta tag at https://justtheconstitution.org/og-image.png is what
  Twitter / FB / LinkedIn / Slack scrapers fetch — they render the PNG,
  not this SVG.

  Composition:
    Left:   engrossed "We" mark, 384×384, paths from assets/favicon-we.svg
    Right:  wordmark + rule + tagline, ranged left at x=560

  Typography:
    Libre Caslon Text for the wordmark and tagline.
    Falls back to system Caslon / Garamond / Georgia for export environments
    that don't have Libre Caslon installed.

  Palette tracks [data-theme="parchment"] light tokens from styles.css:
    paper #f0e6d0   ink #2a1c0a

  Export options (any one — all produce identical PNGs):
    1. Inkscape:  inkscape assets/og-image.svg --export-type=png --export-filename=og-image.png -w 1200
    2. rsvg-convert (librsvg):  rsvg-convert -w 1200 assets/og-image.svg -o og-image.png
    3. Figma / Affinity Designer / Illustrator: open, export as PNG @1×, 1200×630.

  If your export environment lacks Libre Caslon Text, install it (free, SIL OFL,
  fonts.google.com/specimen/Libre+Caslon+Text) OR convert text to paths before
  exporting (in Inkscape: select all text, Path → Object to Path).
-->
<svg xmlns="http://www.w3.org/2000/svg" viewBox="0 0 1200 630" width="1200" height="630" role="img" aria-label="justtheconstitution.org — No ads. No commentary. Just the info.">

  <!-- Parchment background -->
  <rect width="1200" height="630" fill="#f0e6d0"/>

  <!-- Engrossed "We" mark — paths copied verbatim from assets/favicon-we.svg.
       Original viewBox 0 0 160 160 → translate(100,123) scale(2.4) → 384×384 on canvas. -->
  <g transform="translate(100 123) scale(2.4)" fill="#2a1c0a">
    <path d="M145.98,98.02c-.13-.09-.23-.03-.37.07-.3.21-.67.68-1.44,1.56-1.8,2.06-3.68,4.05-5.51,6.08l-1.89,2.1s0,0-.01.01c0,0-5.04,5.03-5.17,5.16,0,0,0,0,0,0l-1.19,1.03c-.19.16-.45.21-.68.12l-1.76-.64s0,0,0,0l-1.34-.63c-1.53-.73-2.99-1.61-4.32-2.67-.75-.6-1.54-1.13-2.13-1.88l-2.74-3.52s0,0,0,0c-1.59-2.37-2.88-4.85-3.73-7.63-.05-.15,0-.32.12-.43l1.96-1.75,5.86-5.08,1.79-1.68c2.11-1.99,3.75-4.88,4.59-7.7.73-2.45.58-5.13-.48-7.45-1.24-2.73-3.66-5.77-6.68-5.11,0,0-.02,0-.03,0-1.78.85-3.13,2.3-4.48,3.66l-1.15,1.15-1.85,1.97s0,0,0,0c-1.1,1.37-1.99,2.86-2.58,4.5-1.62,4.47-2.06,6.64-2.3,11.42-.14,2.72.03,5.25.45,7.95.66,4.23,2.27,8.22,4.86,11.61,2.6,3.4,6.94,6.4,11,7.63,0,0,0,0,.01,0l1.2.22c.22.04.31.32.15.48l-9.62,9.62c-.15.15.04.4.23.29h0c.2-.12.38-.26.54-.42l2.11-2.11,2.05-2.05c.73-.73,1.46-1.46,2.19-2.19l1.93-1.93c.41-.41.82-.84,1.24-1.24.88-.84,1.75-1.7,2.61-2.57,1-1.02,2.01-2.04,3.02-3.06h0c1.12-1.13,2.24-2.25,3.36-3.37.82-.82,1.57-1.71,2.36-2.55l2.45-2.71c1.35-1.59,2.79-3.12,4.25-4.61.43-.44.41-.47.98-1.09.13-.14.26-.52.18-.58ZM112.22,90.16l-.21-2.19s0,0,0,0l-.12-4.03c-.15-5.01,1.88-10.19,6.15-13.07.01-.01.03-.02.05-.02.56-.06,1.07.33,1.44.69,1.05,1.01,2.03,1.97,2.77,3.26,2.74,4.77,3.39,10.85-.99,14.69l-2.09,1.84-5.66,4.84c-.06.05-.14.02-.17-.04-.71-2-.97-3.94-1.17-5.96Z"/>
    <path d="M98.14,69.71c-.94-3.53-2.08-6.99-3.9-10.14-1.84-3.18-4.33-6.72-7.68-8.2l-2.01-.88-.46-.18c-.31-.12-.4-.52-.17-.76l4.59-4.84c.13-.14-.02-.35-.19-.28l-.1.04c-.1.04-.19.1-.27.18l-14.95,15.76c-.07.07.02.18.1.13l.45-.08c.19-.12.61-.62.76-.78l5.52-5.82c.3-.31.79-.35,1.13-.07l.96.78,2.65,2.03c1.44,1.24,2.52,2.68,3.58,4.26,1.31,1.95,2.4,3.88,3.13,6.14.76,2.33,1.55,4.56,2.15,6.94l1.71,6.84c1.39,5.56,1.72,11.74-.11,17.18l-1.12,3.32-1.69,4.22c-1,2.06-2.23,3.84-3.59,5.66-.6.79-1.22,1.56-1.98,2.22-.18.15-.43.18-.64.06l-2.99-1.65-3.66-1.98-3.63-1.99c-.16-.09-.28-.25-.31-.44l-1.23-7.67-1.45-11.18-1.43-9.55-.93-5.8-1.14-6.77-.89-4.29c-.3-1.45-.48-2.85-.6-4.32-.05-.52-.36-.88-.79-1.14-1-.6-1.91-1.25-2.77-2.04-.96-.88-1.93-1.65-2.97-2.44-1.1-.84-2.05-1.98-3.16-2.99-.44-.4-.47-1.08-.06-1.51l13.49-14.22c.25-.26,1.15-1.48-.15-.33l-1.7,1.65c-.16.11-1.37,1.42-1.52,1.57l-25.79,26.28c-.19-.11-.31-.27-.34-.51l-.78-6.77c-.07-.63.13-1.32-.34-1.85-.38-.43-.92-.75-1.41-1.11l-7.14-5.24c-.15-.11-.22-.2-.24-.29-.09-.36.05-.75.31-1.02l13.16-14.39c.25-.26,1.15-1.48-.15-.33l-1.7,1.65c-.16.11-1.37,1.42-1.52,1.57l-20.17,21.47c-.1.11-.6.59-1.05,1.2-.13.17,0,.41.2.42h.24c.32-.25,2.7-2.95,2.99-3.26l2.97-3.09c.54-.56,1.39-.66,2.04-.23l.19.12,3.61,2.72,3.02,2.29.31,1.09.75,4.43,1.96,13.18.76,6.49.66,4.86.89,6.11c.82,5.61,1.68,11.1,2.26,16.74.02.24-.08.47-.27.61-.12.09-.24.18-.36.26-.32.24-.67.45-.99.71-.6.48-1.05,1.16-1.23,1.91-.09.37-.17.74.06,1.03h0s.06-.06.1-.19c.17-.59.3-1.16.79-1.58.06-.05.11-.09.18-.13.16-.1.37-.11.54-.02,2.01.34,3.85.97,5.62,1.94l3,1.56,3.78,2.1s.08.04.12.07c.35.2.43.67.17.97l-10.29,12.19c-.05.06.03.14.09.09l1.35-1.33,10.18-11.65c.05-.06.1-.12.16-.18l2.95-3.41,1.31-1.58,1.5-1.87,1.21-1.52,5.41-7.53c.06-.08.19-.05.2.05l.09.67.58,4.15c.09.64-.05,1.28-.39,1.83l-1.36,2.18-1.32,2.89c-.04.08.07.15.13.08l.33-.38.83-1.28c.21-.32.6-.46.96-.33.29.1.57.2.57.2l.46.16,1.44.68c1.45.6,2.72,1.49,4.11,2.21l4.68,2.42,1.6.88c.2.11.46.08.63-.07l1.01-.9,2.88-2.52,2.28-2.41,1.26-1.5,2.62-3.39c.86-1.12,1.61-2.26,2.22-3.55l3.78-7.85c2.97-6.18,2.61-13.36.89-19.87l-1.59-5.98ZM69.18,100.68l-5.69,7.96-1.58,1.91-2.15,2.55c-.09.11-.33.29-.46.31s-.33-.24-.47-.31l-7.26-3.67-2.44-1.45-.45-2.03-.97-6.61-.6-4.13-.79-5.36-2.36-15.87-1.58-10.07.31-.15c.32-.26,1.17-1.21,1.46-1.52l9.59-10.1c.25-.27.68-.26.92.02.03.03.05.06.08.09l1.61,1.9c1.76,1.87,3.58,3.59,5.51,5.29.87.77,1.74.6,1.83,1.44.18,1.77.51,3.42.8,5.2l1.84,11.49.29,2.63,2.64,20.06v.03c.02.14-.01.27-.09.39Z"/>
  </g>

  <!-- Wordmark + tagline, ranged left at x=560 -->
  <g fill="#2a1c0a" font-family="'Libre Caslon Text', 'Caslon Pro', 'Adobe Caslon Pro', Garamond, Georgia, serif">

    <!-- Wordmark: just (regular) the (bold) constitution (regular) .org (smaller) -->
    <text x="560" y="300" font-size="50" font-weight="400">
      <tspan>just</tspan><tspan font-weight="700">the</tspan><tspan>constitution</tspan><tspan font-size="36" dy="-2">.org</tspan>
    </text>

    <!-- Editorial rule, matched register to footer Courier opacity -->
    <line x1="560" y1="335" x2="660" y2="335" stroke="#2a1c0a" stroke-width="1.6" stroke-opacity="0.55"/>

    <!-- Tagline, italic, smaller -->
    <text x="560" y="395" font-size="32" font-style="italic" font-weight="400">No ads. No commentary. Just the info.</text>

  </g>

</svg>
